<svg xmlns="http://www.w3.org/2000/svg" xmlns:xlink="http://www.w3.org/1999/xlink" width="1599px" height="223px" viewBox="0 0 1599 223" version="1.1">
    <!-- Generator: Sketch 51.3 (57544) - http://www.bohemiancoding.com/sketch -->
    <title>Background Element</title>
    <desc>Created with Sketch.</desc>
    <defs>
        <rect id="path-1" x="0" y="0" width="1603" height="233"/>
    </defs>
    <g id="Assets" stroke="none" stroke-width="1" fill="none" fill-rule="evenodd">
        <g id="Cross-Sell-Background-Element">
            <g id="Background-Element" transform="translate(-1.000000, -10.000000)">
                <mask id="mask-2" fill="white">
                    <use xlink:href="#path-1"/>
                </mask>
                <g id="Background" fill-rule="nonzero"/>
                <g id="Design-Elements" mask="url(#mask-2)">
                    <g transform="translate(-238.000000, -101.000000)">
                        <path d="M1179.12038,661.085436 C1184.39267,649.835066 1186.62685,639.675502 1186.52437,630.232493 C1186.42416,620.791767 1184.0169,612.110954 1180.10879,603.966416 C1164.47183,571.388264 1124.80322,547.404209 1109.48509,512.47101 C1086.51019,460.071213 1122.05434,405.391674 1163.82959,371.45572 C1213.56908,329.571481 1267.92951,300.302262 1317.3866,263.105297 C1324.54462,257.728852 1331.66165,252.124205 1338.90166,246.049462 C1411.08769,173.556457 1515.48596,138.239878 1616.26764,168.882875 C1712.10726,199.525871 1771.05903,279.665933 1808.24067,368.653396 C1812.37651,378.543681 1816.24135,388.545785 1819.88526,398.62776 C1834.79345,468.190648 1894.82928,543.412952 1897.84235,615.985828 C1897.8469,616.090801 1897.85146,616.193492 1897.85601,616.298465 C1898.48915,632.423235 1894.68808,648.41793 1887.65987,662.938438 C1851.35506,737.93254 1798.2085,836.593495 1732.22852,901.27742 C1724.36221,908.988373 1716.31371,916.21782 1708.08984,922.865351 C1625.8557,988.601288 1516.0576,965.99101 1429.52592,922.968042 C1419.89231,918.155257 1410.54338,913.091449 1401.4723,907.740107 C1373.08162,890.958114 1347.00938,921.865826 1322.39015,916.484817 C1264.95061,903.926848 1261.44334,821.33133 1206.68662,796.439029 C1160.14012,773.342681 1151.97091,722.026844 1171.92136,682.536446 C1174.01662,675.731456 1176.46487,668.552213 1179.12038,661.085436" id="Fill-2" fill="#33475B" fill-rule="evenodd" transform="translate(1500.092591, 560.971805) rotate(127.000000) translate(-1500.092591, -560.971805) "/>
                        <path d="M138.763661,836.107169 C146.398562,819.815315 149.633913,805.103076 149.485502,791.428494 C149.34039,777.757215 145.85439,765.186381 140.194999,753.392136 C117.55084,706.215156 60.1060454,671.483434 37.9236083,620.89607 C4.6532507,545.015023 56.1253434,465.832646 116.6208,416.689407 C188.64941,356.036123 267.369688,313.650864 338.989343,259.785302 C349.354999,251.99958 359.66129,243.883394 370.145675,235.086454 C474.679502,130.10809 625.86043,78.9655465 771.804112,123.340196 C910.591105,167.714845 995.960178,283.767043 1049.80354,412.631315 C1055.79273,426.953606 1061.38946,441.437825 1066.66628,456.037705 C1088.25508,556.772917 1175.19401,665.703626 1179.55728,770.797652 C1179.56387,770.949666 1179.57047,771.098374 1179.57707,771.250388 C1180.49391,794.600944 1174.98953,817.763136 1164.81186,838.790533 C1112.23823,947.390778 1035.27579,1090.2634 939.729052,1183.9333 C928.337714,1195.09967 916.682535,1205.56875 904.77341,1215.19516 C785.688747,1310.38849 626.688231,1277.64616 501.380218,1215.34386 C487.429622,1208.37439 473.891277,1201.0414 460.75529,1193.29203 C419.642257,1168.98974 381.886602,1213.74773 346.235079,1205.95539 C263.055886,1187.76998 257.976946,1068.162 178.682814,1032.11503 C111.278019,998.668811 99.4480454,924.357467 128.338641,867.170745 C131.372814,857.316321 134.918178,846.919937 138.763661,836.107169" id="Fill-2" fill="#516F90" fill-rule="evenodd" transform="translate(603.569027, 691.130902) scale(-1, 1) rotate(88.000000) translate(-603.569027, -691.130902) "/>
                        <circle id="Oval-2" fill="#F5C26B" fill-rule="nonzero" cx="1667" cy="234" r="18"/>
                    </g>
                </g>
            </g>
        </g>
    </g>
</svg>